#!OML:ASF X:\für Bonn\!DataBase\2005_08_12_Daniel\c3d\Daniel.ASF
:FULLY-SPECIFIED
:DEGREES
1
root 2.58425 16.913 0.294556 324.668 -87.5838 -337.089
lowerback 23.0323 -2.74511 1.51761
upperback 9.02433 -4.06225 -2.23334
thorax -3.19364 -2.24677 -2.22144
lowerneck 7.07956 2.3667 -4.17078
upperneck 5.89592 2.70593 -0.819003
head 0.603507 1.18515 0.386037
rclavicle -3.80673e-014 4.77083e-015
rhumerus 338.039 -28.6725 -58.34
rradius -0.927303
rwrist -364.581
rhand -37.3574 13.6931
rfingers 7.12502
rthumb -10.4194 -16.0287
lclavicle -3.80673e-014 4.77083e-015
lhumerus -51.7367 67.4167 21.5677
lradius 12.0289
lwrist -9.28887
lhand -28.0022 6.34647
lfingers 7.12502
lthumb -1.38803 36.3217
rfemur 7.58808 5.76735 10.9941
rtibia 24.3899
rfoot -25.1148 -19.9534
rtoes -12.4781
lfemur -0.967521 -9.81244 -15.0861
ltibia 35.7448
lfoot -25.3484 3.54689
ltoes -0.595728
2
root 2.64126 16.9085 0.296497 323.183 -87.6321 -335.743
lowerback 23.6558 -2.75176 1.54979
upperback 9.00022 -4.07107 -2.26993
thorax -3.53238 -2.25568 -2.247
lowerneck 5.46871 2.28154 -4.19219
upperneck 6.42466 2.70132 -0.701871
head 1.02551 1.1755 0.450703
rclavicle 4.96962e-015 7.95139e-015
rhumerus 341.192 -26.6931 -64.4272
rradius -1.96123
rwrist -365.641
rhand -37.9823 13.6279
rfingers 7.12502
rthumb -11.0222 -16.0627
lclavicle 4.96962e-015 7.95139e-015
lhumerus -43.4096 67.627 33.7952
lradius 11.8763
lwrist -8.49102
lhand -28.2022 5.71732
lfingers 7.12502
lthumb -1.58121 35.6912
rfemur 7.34548 5.59597 10.841
rtibia 24.6407
rfoot -24.9232 -19.6335
rtoes -12.2431
lfemur -1.02287 -9.79743 -15.1357
ltibia 35.7529
lfoot -25.2191 3.65267
ltoes -0.559512
3
root 2.69845 16.9053 0.297896 321.444 -87.6874 -334.136
lowerback 24.2205 -2.75868 1.58432
upperback 8.97027 -4.07987 -2.32518
thorax -3.84896 -2.26369 -2.29696
lowerneck 3.87881 2.19134 -4.16646
upperneck 7.00116 2.68758 -0.598337
head 1.47075 1.16111 0.506144
rclavicle -2.22639e-014 1.51076e-014
rhumerus 344.214 -24.3846 -70.1816
rradius -2.41874
rwrist -367.078
rhand -38.1996 14.0391
rfingers 7.12502
rthumb -11.2317 -15.6402
lclavicle -2.22639e-014 1.51076e-014
lhumerus -32.7873 65.8726 48.3166
lradius 12.0939
lwrist -5.87112
lhand -28.0903 5.16636
lfingers 7.12502
lthumb -1.47313 35.141
rfemur 7.09708 5.48478 10.7085
rtibia 24.8857
rfoot -24.7524 -19.3721
rtoes -12.0097
lfemur -1.08044 -9.72338 -15.167
ltibia 35.7521
lfoot -25.0617 3.7293
ltoes -0.578097
4
root 2.74491 16.9024 0.299338 319.739 -87.7428 -332.568
lowerback 24.5968 -2.75558 1.59953
upperback 8.96689 -4.07891 -2.35457
thorax -4.03982 -2.26654 -2.32056
lowerneck 2.40543 2.11002 -4.18642
upperneck 7.58237 2.67296 -0.493606
head 1.90932 1.14473 0.56931
rclavicle 3.18055e-015 -5.56597e-015
rhumerus 346.59 -22.0238 -75.7777
rradius -1.17073
rwrist -368.593
rhand -38.1472 14.0841
rfingers 7.12502
rthumb -11.1812 -15.5979
lclavicle 3.18055e-015 -5.56597e-015
lhumerus -23.3032 62.8564 61.5496
lradius 12.637
lwrist -2.98907
lhand -27.6469 4.78662
lfingers 7.12502
lthumb -1.04484 34.7638
rfemur 6.91867 5.37995 10.5971
rtibia 25.0979
rfoot -24.6073 -19.1232
rtoes -11.798
lfemur -1.09096 -9.72301 -15.2149
ltibia 35.7513
lfoot -24.9569 3.82974
ltoes -0.542205
5
root 2.79221 16.8995 0.300681 317.95 -87.798 -330.901
lowerback 24.9046 -2.75564 1.59905
upperback 8.95612 -4.08425 -2.38115
thorax -4.20412 -2.27192 -2.33342
lowerneck 1.05214 2.03806 -4.22319
upperneck 8.14571 2.66146 -0.398351
head 2.33209 1.12938 0.631504
rclavicle -1.2424e-014 -2.38542e-015
rhumerus 349.208 -19.2681 -81.0424
rradius -0.15631
rwrist -370.294
rhand -37.8023 14.6359
rfingers 7.12502
rthumb -10.8486 -15.0639
lclavicle -1.2424e-014 -2.38542e-015
lhumerus -15.5718 58.5512 72.7625
lradius 13.447
lwrist 0.11842
lhand -27.023 4.77808
lfingers 7.12502
lthumb -0.442298 34.7574
rfemur 6.72613 5.28587 10.4953
rtibia 25.29
rfoot -24.4252 -18.9494
rtoes -11.6716
lfemur -1.10837 -9.71844 -15.2647
ltibia 35.742
lfoot -24.8543 3.94754
ltoes -0.506463
6
root 2.83819 16.8979 0.301804 316.358 -87.8365 -329.436
lowerback 25.1528 -2.7599 1.62014
upperback 8.93764 -4.09019 -2.43137
thorax -4.3506 -2.27625 -2.38655
lowerneck -0.147263 1.9586 -4.16741
upperneck 8.68202 2.62939 -0.343828
head 2.72967 1.10594 0.662685
rclavicle -3.37934e-015 1.07344e-014
rhumerus 351.76 -16.2092 -85.806
rradius 1.06446
rwrist -372.136
rhand -36.992 14.9735
rfingers 7.12502
rthumb -10.0669 -14.7657
lclavicle -3.37934e-015 1.07344e-014
lhumerus -9.62617 52.7167 81.7518
lradius 14.3763
lwrist 3.57875
lhand -26.3275 4.99317
lfingers 7.12502
lthumb 0.229423 34.9728
rfemur 6.57271 5.20927 10.4014
rtibia 25.4452
rfoot -24.2868 -18.7656
rtoes -11.5586
lfemur -1.12317 -9.69066 -15.3027
ltibia 35.7302
lfoot -24.7582 4.04374
ltoes -0.618592
7
root 2.88229 16.8961 0.302623 314.169 -87.8637 -327.373
lowerback 25.3133 -2.75575 1.56565
upperback 8.93921 -4.10201 -2.44813
thorax -4.42578 -2.28456 -2.3632
lowerneck -1.34768 1.90235 -4.21511
upperneck 9.29593 2.62523 -0.243172
head 3.16079 1.09225 0.728387
rclavicle 1.27222e-014 -3.18055e-015
rhumerus 354.229 -12.7411 -89.8486
rradius 2.58221
rwrist -374.058
rhand -35.689 15.1084
rfingers 7.12502
rthumb -8.80966 -14.6878
lclavicle 1.27222e-014 -3.18055e-015
lhumerus -5.0779 46.8999 88.7689
lradius 15.2414
lwrist 6.16328
lhand -25.5752 5.18545
lfingers 7.12502
lthumb 0.956055 35.1631
rfemur 6.42356 5.11734 10.2825
rtibia 25.5862
rfoot -24.0821 -18.6134
rtoes -11.4213
lfemur -1.11914 -9.71665 -15.3792
ltibia 35.709
lfoot -24.673 4.15606
ltoes -0.526627
